<svg width="24" height="24" viewBox="0 0 24 24" fill="none" xmlns="http://www.w3.org/2000/svg">
<rect width="24" height="24" fill="white"/>
<path d="M11.0103 19.5001C11.1475 16.1744 12.6668 13 16 13C19.3332 13 20.8525 16.1744 20.9897 19.5001C21.0011 19.776 20.7761 20 20.5 20H11.5C11.2239 20 10.9989 19.776 11.0103 19.5001Z" fill="#0898A0"/>
<circle cx="15" cy="10" r="3" fill="#0DA6AF" fill-opacity="0.4"/>
<path d="M4.011 20.5001C4.17994 16.6735 6.30425 13 11 13C15.6958 13 17.8201 16.6735 17.989 20.5001C18.0012 20.776 17.7761 21 17.5 21H4.5C4.22386 21 3.99882 20.776 4.011 20.5001Z" fill="#0898A0" stroke="white"/>
<circle cx="10.5" cy="9.5" r="3.5" fill="#0DA6AF" fill-opacity="0.4"/>
</svg>
