<svg width="45" height="24" viewBox="0 0 45 24" fill="none" xmlns="http://www.w3.org/2000/svg">
<path d="M26.25 15L18.75 19L26.25 23" stroke="#756F6F" stroke-opacity="0.35" stroke-width="2"/>
<path d="M33.8666 8.5C35.0185 9.56413 35.625 10.7712 35.625 12C35.625 13.2288 35.0185 14.4359 33.8666 15.5C32.7146 16.5641 31.0578 17.4478 29.0625 18.0622C27.0672 18.6766 24.8039 19 22.5 19" stroke="#756F6F" stroke-opacity="0.35" stroke-width="2" stroke-linecap="round"/>
<path d="M18.75 9L26.25 5L18.75 1" stroke="#787878" stroke-width="2"/>
<path d="M11.1334 15.5C9.98146 14.4359 9.375 13.2288 9.375 12C9.375 10.7712 9.98146 9.56413 11.1334 8.5C12.2854 7.43587 13.9422 6.5522 15.9375 5.93782C17.9328 5.32344 20.1961 5 22.5 5" stroke="#787878" stroke-width="2" stroke-linecap="round"/>
</svg>
