<svg width="15" height="16" viewBox="0 0 15 16" fill="none" xmlns="http://www.w3.org/2000/svg">
<path d="M14.893 13.0518C14.8788 13.1229 14.8709 13.1982 14.8693 13.2707C14.7989 16.6285 11.5277 15.8882 7.50251 15.8882C3.50335 15.8882 0.374475 16.7836 0.267918 13.5056C0.264197 13.3911 0.244095 13.2738 0.209877 13.1644C-1.20273 8.65177 4.90526 2.78294 6.89453 1.02163C7.24558 0.710804 7.75997 0.706151 8.1136 1.01404C10.0484 2.69853 15.8564 8.22115 14.893 13.0518Z" fill="#0898A0"/>
<path d="M3.00001 5H12L13 6L13.5 7H1.64474L2 6L2.50001 5.5L3.00001 5Z" fill="#0D0B45"/>
<path d="M3 3H12.6775L13.2485 4H2L3 3Z" fill="#F3F7F7"/>
<path d="M12.5 1.5C12.5 4 11.3137 3.5 8 3.5C4.68629 3.5 3 4 3 1.5C3 0.671573 4.68629 0 8 0C11.3137 0 12.5 0.671573 12.5 1.5Z" fill="#0898A0"/>
</svg>
