<svg width="20" height="21" viewBox="0 0 20 21" fill="none" xmlns="http://www.w3.org/2000/svg">
<path d="M4 10.6667C4 11.1382 4.1873 11.5903 4.5207 11.9237C4.8541 12.2571 5.30628 12.4444 5.77778 12.4444H16.4444L20 16V1.77778C20 1.30628 19.8127 0.854097 19.4793 0.520699C19.1459 0.187301 18.6937 0 18.2222 0H5.77778C5.30628 0 4.8541 0.187301 4.5207 0.520699C4.1873 0.854097 4 1.30628 4 1.77778V10.6667Z" fill="#0898A0"/>
<path d="M13 16C13 16.3536 12.8595 16.6928 12.6095 16.9428C12.3594 17.1929 12.0203 17.3333 11.6667 17.3333H3.66667L1 20V9.33333C1 8.97971 1.14048 8.64057 1.39052 8.39052C1.64057 8.14048 1.97971 8 2.33333 8H11.6667C12.0203 8 12.3594 8.14048 12.6095 8.39052C12.8595 8.64057 13 8.97971 13 9.33333V16Z" fill="#CCECEE" stroke="white" stroke-width="2" stroke-linecap="round" stroke-linejoin="round"/>
</svg>
